<svg xmlns="http://www.w3.org/2000/svg" viewBox="0 0 250 250"><title>Dress4</title><circle cx="125" cy="125" r="125" style="fill:#b3b3b3"/><path d="M76.767,200.236S108.417,81.493,111.392,70.58a8.61,8.61,0,0,0-.938-7.432,44.5,44.5,0,0,1-2.584-4.631c-1.692-3.432-.421-6.338,3.234-7.5,4.463-1.416,8.231-.085,11.528,2.994.64.6,1.22,1.262,2.157,2.24a25.447,25.447,0,0,1,2.216-2.639,10.779,10.779,0,0,1,10.626-2.726c4.046,1.1,5.446,4.148,3.539,7.867-.833,1.625-1.709,3.236-2.683,4.779a7.728,7.728,0,0,0-.854,6.447c4.377,16.394,34.4,129.194,34.646,130.254Z" style="fill:#fff"/></svg>