<svg xmlns="http://www.w3.org/2000/svg" viewBox="0 0 250 250"><title>Dress7</title><circle cx="125" cy="125" r="125" style="fill:#b3b3b3"/><path d="M166.21,200.44c-.141-.826-5.9-26.8-8.658-39.109-3.887-17.365-17.851-79.693-19.3-86.674a10.051,10.051,0,0,1,.022-4.693c1.13-3.832,2.516-7.6,3.958-11.326,1.46-3.775.186-6.515-3.726-7.568a10.357,10.357,0,0,0-9.387,1.717c-1.21.916-2.308,1.981-3.863,3.33-1.555-1.35-2.653-2.414-3.863-3.33a10.356,10.356,0,0,0-9.386-1.717c-3.912,1.052-5.186,3.793-3.726,7.568,1.442,3.73,2.828,7.494,3.958,11.326a10.05,10.05,0,0,1,.022,4.693c-1.449,6.98-15.414,69.308-19.3,86.674-2.754,12.3-8.517,38.283-8.658,39.109Z" style="fill:#fff"/></svg>