<svg xmlns="http://www.w3.org/2000/svg" viewBox="0 0 250 250"><title>Dress6</title><circle cx="125" cy="125" r="125" style="fill:#b3b3b3"/><path d="M152.531,199.329H97.425c.294-.807.51-1.5.8-2.172,5.172-12.081,10.326-24.17,15.552-36.228a13.338,13.338,0,0,0,.8-7.721q-3.13-19.984-5.907-40.023c-.57-4.078-.733-8.215-1.052-12.327A32.776,32.776,0,0,1,110.2,86.012c1.225-3.064,2.416-6.142,3.689-9.186a8.556,8.556,0,0,0-.247-7.507c-1.089-2.156-2.21-4.3-3.293-6.456a42.622,42.622,0,0,1-1.889-3.99,6.267,6.267,0,0,1,3.134-8.07,9.145,9.145,0,0,1,11.667,2.757c.54.757,1.036,1.546,1.709,2.554.633-.941,1.133-1.707,1.656-2.456a9.07,9.07,0,0,1,11.628-2.9,6.169,6.169,0,0,1,3.2,8.166c-1.062,2.549-2.469,4.954-3.7,7.433q-.9,1.819-1.729,3.677a7.633,7.633,0,0,0-.147,6.18c1.446,3.609,2.832,7.242,4.27,10.855a34.856,34.856,0,0,1,2.112,15.8,525.677,525.677,0,0,1-7.133,52.336,9.723,9.723,0,0,0,.876,5.11c5.181,12.332,10.491,24.611,15.754,36.909C152.018,197.854,152.228,198.511,152.531,199.329Z" style="fill:#fff"/></svg>