<svg xmlns="http://www.w3.org/2000/svg" viewBox="0 0 250 250"><title>Dress8</title><circle cx="125" cy="125" r="125" style="fill:#b3b3b3"/><path d="M60.791,186.407c2.91-5.188,5.61-10.225,8.519-15.14,5.143-8.689,8.594-18.077,11.764-27.6Q88.613,121.02,96.241,98.4c3.4-10.034,9.183-18.836,14.681-27.775a36.893,36.893,0,0,1,2.613-3.994,3.99,3.99,0,0,0,.5-4.6c-1.378-2.865-2.874-5.673-4.256-8.535a21.242,21.242,0,0,1-1.872-4.538,5.46,5.46,0,0,1,3.949-6.6A10.235,10.235,0,0,1,122.35,44.8c.855.8,1.626,1.691,2.57,2.681.5-.574.941-1.1,1.4-1.608a10.883,10.883,0,0,1,9.217-3.985c5.406.349,7.967,4.616,5.569,9.456-.837,1.69-1.823,3.3-2.692,4.979-.841,1.62-1.636,3.266-2.423,4.914a5.086,5.086,0,0,0,.677,5.852c9.057,11.926,15.015,25.362,19.6,39.577,5.568,17.271,11.657,34.376,17.649,51.508,1.906,5.45,10.877,21.589,15.287,28.194a14.645,14.645,0,0,1-2.98,1.449,43.56,43.56,0,0,1-5.245.735c-5.171.56-7.483,2.674-8.41,7.748a7.408,7.408,0,0,1-7.721,6.435,31.207,31.207,0,0,1-6.061-1c-1.6-.364-3.156-.96-4.728-1.463-4.176-1.336-7.86-.686-11.087,2.462a21.2,21.2,0,0,1-11.311,5.847c-6.311,1.1-12.624.954-18.625-1.466A19.216,19.216,0,0,1,106.749,203c-3.221-3.232-6.787-3.975-11-2.775a73.806,73.806,0,0,1-7.334,1.948c-4.916.865-9.161-1.23-10.751-5.9-1.958-5.748-5.745-8.123-11.574-8.036A7.242,7.242,0,0,1,60.791,186.407Z" style="fill:#fff"/></svg>