<svg xmlns="http://www.w3.org/2000/svg" viewBox="0 0 250 250"><title>Dress5</title><circle cx="125" cy="125" r="125" style="fill:#b3b3b3"/><path d="M182.779,196.586c-.132-8.369-.24-16.745-.695-25.1a180.186,180.186,0,0,0-6.059-37.457c-3.371-12.427-8.065-24.283-15.685-34.8-5.235-7.222-8.737-11.621-19.776-16.965-4.185-2.09-8.953-10.858-1.707-17.667,4.083-3.457,3.186-10.975-.669-12.962s-8.889-.491-13.109,4.342c-4.22-4.833-9.254-6.33-13.109-4.342s-4.752,9.505-.669,12.962c7.246,6.809,2.478,15.577-1.707,17.667-11.038,5.344-14.541,9.743-19.776,16.965C82.2,109.747,77.5,121.6,74.133,134.03a180.186,180.186,0,0,0-6.059,37.457c-.454,8.355-.563,16.731-.695,25.1-.058,3.7.09,3.7,3.674,3.7H179.105C182.69,200.289,182.838,200.287,182.779,196.586Z" style="fill:#fff"/></svg>