<svg xmlns="http://www.w3.org/2000/svg" viewBox="0 0 250 250"><title>Dress1</title><circle cx="125" cy="125" r="125" style="fill:#b3b3b3"/><path d="M163.683,198.144c-6.081-14.387-12.2-28.758-18.206-43.177A15.9,15.9,0,0,1,144.4,149.5c-.471-13.791-.806-27.586-1.248-41.378-.143-4.477-.019-9.036-.849-13.4a86.252,86.252,0,0,0-4.3-14.162c-3.116-8.262-3.205-8.828,1.133-16.519,1.042-1.848,2.173-3.654,3.095-5.561,1.528-3.162.4-5.925-2.83-7.146a10.121,10.121,0,0,0-9.927,1.171c-1.426,1.01-2.7,2.24-4.259,3.557h0c-1.562-1.317-2.832-2.547-4.259-3.557a10.121,10.121,0,0,0-9.927-1.171c-3.232,1.221-4.358,3.984-2.83,7.146.922,1.907,2.052,3.713,3.095,5.561,4.338,7.691,4.249,8.257,1.133,16.519a86.244,86.244,0,0,0-4.3,14.162c-.83,4.363-.706,8.922-.849,13.4-.442,13.792-.776,27.587-1.248,41.378a15.906,15.906,0,0,1-1.077,5.472c-6,14.419-12.126,28.789-18.206,43.177-.267.632-.477,1.289-.776,2.106h78.481C164.16,199.433,163.95,198.776,163.683,198.144Z" style="fill:#fff"/></svg>