<svg xmlns="http://www.w3.org/2000/svg" viewBox="0 0 250 250"><title>Dress2</title><circle cx="125" cy="125" r="125" style="fill:#b3b3b3"/><path d="M124.7,56.084c1.615-1.409,2.787-2.579,4.105-3.55a10.291,10.291,0,0,1,9.408-1.585c3.936,1.147,5.265,4.2,3.372,7.835-1.414,2.719-2.986,5.357-4.371,8.09a29.443,29.443,0,0,0-1.725,4.44,2.59,2.59,0,0,0,1.309,3.273c16.19,10.2,25.4,25.142,28.116,43.779,1.919,13.159,2.722,26.5,3.67,39.778.919,12.877,1.428,25.785,2.032,38.683.194,4.134.48,3.508-3.344,3.528-6.428.034-69.113.01-85.632.008-2.355,0-2.424-.01-2.313-2.3.643-13.192,1.224-26.388,2.018-39.571.584-9.708,1.482-19.4,2.2-29.1.956-12.861,3.723-25.157,10.818-36.2a56.385,56.385,0,0,1,18.22-18.237c2.661-1.61,2.386-2.821,1.589-4.663-1.448-3.345-3.228-6.546-4.835-9.825a17.153,17.153,0,0,1-1.654-3.868c-.522-2.521.7-4.393,3.255-5.36,4.438-1.679,8.341-.625,11.759,2.5A24.466,24.466,0,0,1,124.7,56.084Z" style="fill:#fff"/></svg>