<svg xmlns="http://www.w3.org/2000/svg" viewBox="0 0 250 250"><title>Dress3</title><circle cx="125" cy="125" r="125" style="fill:#b3b3b3"/><path d="M145.892,198.359c.04,1.353-.378,1.763-1.673,1.761q-19.466-.039-38.933,0c-1.272,0-1.776-.389-1.725-1.741.459-12.256,3.03-87.982,3.612-100.586.273-5.915,2.586-11.343,4.571-16.827.682-1.884,1.337-3.787,2.178-5.6a4.846,4.846,0,0,0,.021-4.419c-1.438-2.9-3-5.742-4.413-8.656a13.6,13.6,0,0,1-1.644-4.416c-.484-5.345,4.438-8.99,9.927-7.221,1.852.6,3.43,2.134,5.031,3.373a13.45,13.45,0,0,1,1.879,2.3c.911-1.08,1.705-2.084,2.566-3.028,2.728-2.992,6.106-3.633,9.854-2.5a6.7,6.7,0,0,1,3.92,9.361c-1.092,2.347-2.459,4.565-3.681,6.853-.5.935-.935,1.9-1.414,2.851a7.425,7.425,0,0,0-.134,6.274c2.2,6.144,4.6,12.287,5.99,18.634C142.907,99.724,145.784,194.666,145.892,198.359Z" style="fill:#fff"/></svg>